<mxfile host="app.diagrams.net" modified="2020-09-18T22:45:11.822Z" agent="5.0 (Windows NT 10.0; Win64; x64) AppleWebKit/537.36 (KHTML, like Gecko) Chrome/85.0.4183.102 Safari/537.36" etag="syzWTnQNlrxxIM1K_b9J" version="13.7.3" type="github">
  <diagram name="Page-1" id="e7e014a7-5840-1c2e-5031-d8a46d1fe8dd">
    <mxGraphModel dx="1038" dy="548" grid="1" gridSize="10" guides="1" tooltips="1" connect="1" arrows="1" fold="1" page="1" pageScale="1" pageWidth="1169" pageHeight="826" background="#ffffff" math="0" shadow="0">
      <root>
        <mxCell id="0" />
        <mxCell id="1" parent="0" />
        <mxCell id="2" value="PrzypadkiUzycia" style="swimlane;whiteSpace=wrap" parent="1" vertex="1">
          <mxGeometry x="30" y="30" width="980" height="780" as="geometry" />
        </mxCell>
        <mxCell id="5WoeiX4r0hxo1bg6bNLd-41" value="Server&lt;br&gt;" style="shape=umlActor;verticalLabelPosition=bottom;verticalAlign=top;html=1;outlineConnect=0;" parent="2" vertex="1">
          <mxGeometry x="20" y="100" width="80" height="160" as="geometry" />
        </mxCell>
        <mxCell id="5WoeiX4r0hxo1bg6bNLd-42" value="Klient&lt;br&gt;" style="shape=umlActor;verticalLabelPosition=bottom;verticalAlign=top;html=1;outlineConnect=0;" parent="2" vertex="1">
          <mxGeometry x="20" y="450" width="80" height="170" as="geometry" />
        </mxCell>
        <mxCell id="5WoeiX4r0hxo1bg6bNLd-44" value="Dodaj lub usuń klienta" style="ellipse;whiteSpace=wrap;html=1;" parent="2" vertex="1">
          <mxGeometry x="270" y="30" width="160" height="60" as="geometry" />
        </mxCell>
        <mxCell id="5WoeiX4r0hxo1bg6bNLd-45" value="" style="endArrow=none;html=1;entryX=0.073;entryY=0.81;entryDx=0;entryDy=0;entryPerimeter=0;exitX=1;exitY=0.3333333333333333;exitDx=0;exitDy=0;exitPerimeter=0;" parent="2" source="5WoeiX4r0hxo1bg6bNLd-46" target="5WoeiX4r0hxo1bg6bNLd-44" edge="1">
          <mxGeometry width="50" height="50" relative="1" as="geometry">
            <mxPoint x="120" y="150" as="sourcePoint" />
            <mxPoint x="170" y="100" as="targetPoint" />
          </mxGeometry>
        </mxCell>
        <mxCell id="5WoeiX4r0hxo1bg6bNLd-46" value="Dotyczy zarejestrowanych uzytkownikow&lt;br&gt;" style="shape=note;whiteSpace=wrap;html=1;size=14;verticalAlign=top;align=left;spacingTop=-6;" parent="2" vertex="1">
          <mxGeometry x="120" y="80" width="120" height="55" as="geometry" />
        </mxCell>
        <mxCell id="5WoeiX4r0hxo1bg6bNLd-47" value="" style="endArrow=none;html=1;entryX=0.073;entryY=0.81;entryDx=0;entryDy=0;entryPerimeter=0;exitX=1;exitY=0.3333333333333333;exitDx=0;exitDy=0;exitPerimeter=0;" parent="2" source="5WoeiX4r0hxo1bg6bNLd-41" target="5WoeiX4r0hxo1bg6bNLd-46" edge="1">
          <mxGeometry width="50" height="50" relative="1" as="geometry">
            <mxPoint x="180" y="213.33333333333337" as="sourcePoint" />
            <mxPoint x="291.68000000000006" y="148.60000000000002" as="targetPoint" />
          </mxGeometry>
        </mxCell>
        <mxCell id="5WoeiX4r0hxo1bg6bNLd-48" value="Usuń produkt lub przepis z bazy" style="ellipse;whiteSpace=wrap;html=1;" parent="2" vertex="1">
          <mxGeometry x="415" y="90" width="280" height="80" as="geometry" />
        </mxCell>
        <mxCell id="5WoeiX4r0hxo1bg6bNLd-49" value="" style="endArrow=none;html=1;exitX=1;exitY=0.3333333333333333;exitDx=0;exitDy=0;exitPerimeter=0;entryX=0.006;entryY=0.603;entryDx=0;entryDy=0;entryPerimeter=0;" parent="2" source="5WoeiX4r0hxo1bg6bNLd-41" target="5WoeiX4r0hxo1bg6bNLd-48" edge="1">
          <mxGeometry width="50" height="50" relative="1" as="geometry">
            <mxPoint x="420" y="150" as="sourcePoint" />
            <mxPoint x="470" y="100" as="targetPoint" />
          </mxGeometry>
        </mxCell>
        <mxCell id="5WoeiX4r0hxo1bg6bNLd-53" value="Wyszukaj przepis z bazy" style="ellipse;whiteSpace=wrap;html=1;align=center;newEdgeStyle={&quot;edgeStyle&quot;:&quot;entityRelationEdgeStyle&quot;,&quot;startArrow&quot;:&quot;none&quot;,&quot;endArrow&quot;:&quot;none&quot;,&quot;segment&quot;:10,&quot;curved&quot;:1};treeFolding=1;treeMoving=1;" parent="2" vertex="1">
          <mxGeometry x="150" y="270" width="210" height="80" as="geometry" />
        </mxCell>
        <mxCell id="5WoeiX4r0hxo1bg6bNLd-56" value="Dodaj przepis&amp;nbsp;do bazy" style="ellipse;whiteSpace=wrap;html=1;align=center;newEdgeStyle={&quot;edgeStyle&quot;:&quot;entityRelationEdgeStyle&quot;,&quot;startArrow&quot;:&quot;none&quot;,&quot;endArrow&quot;:&quot;none&quot;,&quot;segment&quot;:10,&quot;curved&quot;:1};treeFolding=1;treeMoving=1;" parent="2" vertex="1">
          <mxGeometry x="740" y="350" width="210" height="80" as="geometry" />
        </mxCell>
        <mxCell id="5WoeiX4r0hxo1bg6bNLd-74" value="Wyszukaj produkt z bazy" style="ellipse;whiteSpace=wrap;html=1;align=center;newEdgeStyle={&quot;edgeStyle&quot;:&quot;entityRelationEdgeStyle&quot;,&quot;startArrow&quot;:&quot;none&quot;,&quot;endArrow&quot;:&quot;none&quot;,&quot;segment&quot;:10,&quot;curved&quot;:1};treeFolding=1;treeMoving=1;" parent="2" vertex="1">
          <mxGeometry x="390" y="220" width="210" height="80" as="geometry" />
        </mxCell>
        <mxCell id="5WoeiX4r0hxo1bg6bNLd-101" value="Dodaj produkt do bazy" style="ellipse;whiteSpace=wrap;html=1;align=center;newEdgeStyle={&quot;edgeStyle&quot;:&quot;entityRelationEdgeStyle&quot;,&quot;startArrow&quot;:&quot;none&quot;,&quot;endArrow&quot;:&quot;none&quot;,&quot;segment&quot;:10,&quot;curved&quot;:1};treeFolding=1;treeMoving=1;" parent="2" vertex="1">
          <mxGeometry x="695" y="480" width="210" height="80" as="geometry" />
        </mxCell>
        <mxCell id="5WoeiX4r0hxo1bg6bNLd-110" value="Zarejestruj sie" style="ellipse;whiteSpace=wrap;html=1;align=center;newEdgeStyle={&quot;edgeStyle&quot;:&quot;entityRelationEdgeStyle&quot;,&quot;startArrow&quot;:&quot;none&quot;,&quot;endArrow&quot;:&quot;none&quot;,&quot;segment&quot;:10,&quot;curved&quot;:1};treeFolding=1;treeMoving=1;" parent="2" vertex="1">
          <mxGeometry x="440" y="630" width="210" height="80" as="geometry" />
        </mxCell>
        <mxCell id="5WoeiX4r0hxo1bg6bNLd-111" value="Zaloguj sie" style="ellipse;whiteSpace=wrap;html=1;align=center;newEdgeStyle={&quot;edgeStyle&quot;:&quot;entityRelationEdgeStyle&quot;,&quot;startArrow&quot;:&quot;none&quot;,&quot;endArrow&quot;:&quot;none&quot;,&quot;segment&quot;:10,&quot;curved&quot;:1};treeFolding=1;treeMoving=1;" parent="2" vertex="1">
          <mxGeometry x="180" y="680" width="210" height="80" as="geometry" />
        </mxCell>
        <mxCell id="JBJriOTDXwCMT_v1kKaM-30" value="" style="endArrow=none;html=1;exitX=1;exitY=0.3333333333333333;exitDx=0;exitDy=0;exitPerimeter=0;" edge="1" parent="2" source="5WoeiX4r0hxo1bg6bNLd-42">
          <mxGeometry width="50" height="50" relative="1" as="geometry">
            <mxPoint x="165" y="400" as="sourcePoint" />
            <mxPoint x="215" y="350" as="targetPoint" />
          </mxGeometry>
        </mxCell>
        <mxCell id="JBJriOTDXwCMT_v1kKaM-31" value="" style="endArrow=none;html=1;exitX=1;exitY=0.3333333333333333;exitDx=0;exitDy=0;exitPerimeter=0;entryX=0.284;entryY=0.942;entryDx=0;entryDy=0;entryPerimeter=0;" edge="1" parent="2" source="5WoeiX4r0hxo1bg6bNLd-42" target="5WoeiX4r0hxo1bg6bNLd-74">
          <mxGeometry width="50" height="50" relative="1" as="geometry">
            <mxPoint x="240" y="450" as="sourcePoint" />
            <mxPoint x="290" y="400" as="targetPoint" />
          </mxGeometry>
        </mxCell>
        <mxCell id="JBJriOTDXwCMT_v1kKaM-32" value="" style="endArrow=none;html=1;exitX=1;exitY=0.3333333333333333;exitDx=0;exitDy=0;exitPerimeter=0;" edge="1" parent="2" source="5WoeiX4r0hxo1bg6bNLd-42" target="5WoeiX4r0hxo1bg6bNLd-56">
          <mxGeometry width="50" height="50" relative="1" as="geometry">
            <mxPoint x="260" y="490" as="sourcePoint" />
            <mxPoint x="310" y="440" as="targetPoint" />
          </mxGeometry>
        </mxCell>
        <mxCell id="5WoeiX4r0hxo1bg6bNLd-112" value="Dotyczy zalogowanych uzytkownikow" style="shape=note;whiteSpace=wrap;html=1;size=14;verticalAlign=top;align=left;spacingTop=-6;" parent="2" vertex="1">
          <mxGeometry x="470" y="400" width="120" height="50" as="geometry" />
        </mxCell>
        <mxCell id="JBJriOTDXwCMT_v1kKaM-33" value="" style="endArrow=none;html=1;exitX=1;exitY=0.3333333333333333;exitDx=0;exitDy=0;exitPerimeter=0;entryX=0;entryY=0.5;entryDx=0;entryDy=0;" edge="1" parent="2" source="5WoeiX4r0hxo1bg6bNLd-42" target="5WoeiX4r0hxo1bg6bNLd-101">
          <mxGeometry width="50" height="50" relative="1" as="geometry">
            <mxPoint x="300" y="550" as="sourcePoint" />
            <mxPoint x="350" y="500" as="targetPoint" />
          </mxGeometry>
        </mxCell>
        <mxCell id="JBJriOTDXwCMT_v1kKaM-27" value="Dotyczy zalogowanych uzytkownikow" style="shape=note;whiteSpace=wrap;html=1;size=14;verticalAlign=top;align=left;spacingTop=-6;" vertex="1" parent="2">
          <mxGeometry x="495" y="480" width="120" height="50" as="geometry" />
        </mxCell>
        <mxCell id="JBJriOTDXwCMT_v1kKaM-34" value="" style="endArrow=none;html=1;exitX=1;exitY=0.3333333333333333;exitDx=0;exitDy=0;exitPerimeter=0;entryX=0.19;entryY=0.108;entryDx=0;entryDy=0;entryPerimeter=0;" edge="1" parent="2" source="5WoeiX4r0hxo1bg6bNLd-42" target="5WoeiX4r0hxo1bg6bNLd-110">
          <mxGeometry width="50" height="50" relative="1" as="geometry">
            <mxPoint x="300" y="590" as="sourcePoint" />
            <mxPoint x="350" y="540" as="targetPoint" />
          </mxGeometry>
        </mxCell>
        <mxCell id="JBJriOTDXwCMT_v1kKaM-35" value="" style="endArrow=none;html=1;entryX=1;entryY=0.3333333333333333;entryDx=0;entryDy=0;entryPerimeter=0;" edge="1" parent="2" source="5WoeiX4r0hxo1bg6bNLd-111" target="5WoeiX4r0hxo1bg6bNLd-42">
          <mxGeometry width="50" height="50" relative="1" as="geometry">
            <mxPoint x="150" y="580" as="sourcePoint" />
            <mxPoint x="200" y="530" as="targetPoint" />
          </mxGeometry>
        </mxCell>
        <mxCell id="5WoeiX4r0hxo1bg6bNLd-113" value="Dotyczy zarejestrowanych uzytkownikow&lt;br&gt;" style="shape=note;whiteSpace=wrap;html=1;size=15;verticalAlign=top;align=left;spacingTop=-6;" parent="2" vertex="1">
          <mxGeometry x="140" y="590" width="100" height="50" as="geometry" />
        </mxCell>
      </root>
    </mxGraphModel>
  </diagram>
</mxfile>
